<svg width="16" height="21" fill="none" xmlns="http://www.w3.org/2000/svg"><path d="m13.761 13.136-1.18-.346-2.567-1.677v-.384a3.417 3.417 0 0 0 1.348-2.4.785.785 0 0 0 .659-.774V5.148a.58.58 0 0 0 .242-.474V3.449l1.772-.302c.29-.05.5-.28.52-.575a.619.619 0 0 0-.435-.642L8.147.03a.625.625 0 0 0-.381 0l-5.973 1.9a.619.619 0 0 0-.437.642.62.62 0 0 0 .241.454v1.602h-.015a.61.61 0 0 0-.61.61v.795L.58 8.344c-.068.4.24.766.646.766h1.333a.656.656 0 0 0 .646-.766l-.393-2.311v-.795a.61.61 0 0 0-.61-.61h-.015V3.2l1.465.25v1.224c0 .193.094.366.241.473V7.555c0 .39.286.713.66.773a3.418 3.418 0 0 0 1.347 2.4v.386L3.332 12.79l-1.18.346A2.995 2.995 0 0 0 0 16.012v.877a.295.295 0 0 0 .59 0v-.877a2.42 2.42 0 0 1 1.729-2.31l1.098-.323 4.39 2.608c.089.053.206.056.3 0l4.39-2.608 1.098.322a2.42 2.42 0 0 1 1.73 2.31v2.845a.662.662 0 0 1-.662.662h-1.298v-1.27a.295.295 0 1 0-.59 0v1.27H3.138v-1.27a.295.295 0 1 0-.59 0v1.27H1.252a.662.662 0 0 1-.662-.662v-.59a.295.295 0 1 0-.589 0v.59c0 .69.561 1.25 1.25 1.25h13.413c.69 0 1.25-.56 1.25-1.25v-2.845c0-1.314-.86-2.496-2.152-2.875zM2.558 8.521H1.225a.066.066 0 0 1-.066-.078l.357-2.09h.752l.356 2.09a.066.066 0 0 1-.066.078zm-.336-3.283v.525h-.66v-.525c0-.012.009-.021.02-.021h.619a.02.02 0 0 1 .02.02zm4.681 9.417.118.18-3.007-1.787 1.908-1.246a6.187 6.187 0 0 0 .981 2.853zm-.002-1.272a7.576 7.576 0 0 0 2.111 0c-.134.33-.299.648-.496.95l-.56.86-.559-.86a5.627 5.627 0 0 1-.496-.95zm2.11 1.272c.559-.86.894-1.838.98-2.853l1.909 1.246-3.007 1.787.117-.18zm1.722-9.397h.698v.946h-.346a.352.352 0 0 1-.352-.352v-.594zM1.971 2.49 7.944.59a.039.039 0 0 1 .024 0l5.973 1.9c.012.004.03.01.027.04-.002.03-.02.033-.032.036l-1.975.336-.742-.092a.295.295 0 0 0-.072.585l.527.065v1.208H4.24V3.46l3.047-.377a5.456 5.456 0 0 1 1.338 0l1.153.143a.294.294 0 1 0 .073-.585l-1.154-.143c-.491-.06-.99-.06-1.482 0l-3.263.404-1.976-.336c-.012-.003-.03-.006-.032-.036-.002-.03.015-.036.027-.04zm2.51 3.713v-.946h.7v.594a.352.352 0 0 1-.352.352h-.347zm.649 1.973a.456.456 0 0 0-.454-.428.195.195 0 0 1-.194-.194v-.762h.347c.519 0 .94-.422.94-.94v-.595h4.375v.594c0 .519.422.941.94.941h.348v.762a.195.195 0 0 1-.195.194.456.456 0 0 0-.454.428 2.837 2.837 0 0 1-2.826 2.652A2.837 2.837 0 0 1 5.13 8.177zm2.827 3.241a3.4 3.4 0 0 0 1.468-.332v.186c0 .504-.068 1-.2 1.48-.8.152-1.704.158-2.537 0a5.612 5.612 0 0 1-.2-1.48v-.187a3.4 3.4 0 0 0 1.469.333z" fill="#4C68FF"/></svg>